<svg width="474" height="2" viewBox="0 0 474 2" fill="none" xmlns="http://www.w3.org/2000/svg">
<mask id="path-1-inside-1_2028_1557" fill="white">
<path d="M0.171387 0.9021H473.901V1.73395H0.171387V0.9021Z"/>
</mask>
<path d="M473.901 0.486174H472.654V1.31803H473.901V0.486174ZM470.992 0.486174H468.499V1.31803H470.992V0.486174ZM466.836 0.486174H464.343V1.31803H466.836V0.486174ZM462.681 0.486174H460.188V1.31803H462.681V0.486174ZM458.525 0.486174H456.032V1.31803H458.525V0.486174ZM454.37 0.486174H451.877V1.31803H454.37V0.486174ZM450.214 0.486174H447.721V1.31803H450.214V0.486174ZM446.059 0.486174H443.566V1.31803H446.059V0.486174ZM441.903 0.486174H439.41V1.31803H441.903V0.486174ZM437.748 0.486174H435.254V1.31803H437.748V0.486174ZM433.592 0.486174H431.099V1.31803H433.592V0.486174ZM429.437 0.486174H426.943V1.31803H429.437V0.486174ZM425.281 0.486174H422.788V1.31803H425.281V0.486174ZM421.126 0.486174H418.632V1.31803H421.126V0.486174ZM416.97 0.486174H414.477V1.31803H416.97V0.486174ZM412.815 0.486174H410.321V1.31803H412.815V0.486174ZM408.659 0.486174H406.166V1.31803H408.659V0.486174ZM404.504 0.486174H402.01V1.31803H404.504V0.486174ZM400.348 0.486174H397.855V1.31803H400.348V0.486174ZM396.193 0.486174H393.699V1.31803H396.193V0.486174ZM392.037 0.486174H389.544V1.31803H392.037V0.486174ZM387.882 0.486174H385.388V1.31803H387.882V0.486174ZM383.726 0.486174H381.233V1.31803H383.726V0.486174ZM379.57 0.486174H377.077V1.31803H379.57V0.486174ZM375.415 0.486174H372.922V1.31803H375.415V0.486174ZM371.259 0.486174H368.766V1.31803H371.259V0.486174ZM367.104 0.486174H364.611V1.31803H367.104V0.486174ZM362.948 0.486174H360.455V1.31803H362.948V0.486174ZM358.793 0.486174H356.3V1.31803H358.793V0.486174ZM354.637 0.486174H352.144V1.31803H354.637V0.486174ZM350.482 0.486174H347.988V1.31803H350.482V0.486174ZM346.326 0.486174H343.833V1.31803H346.326V0.486174ZM342.171 0.486174H339.677V1.31803H342.171V0.486174ZM338.015 0.486174H335.522V1.31803H338.015V0.486174ZM333.86 0.486174H331.366V1.31803H333.86V0.486174ZM329.704 0.486174H327.211V1.31803H329.704V0.486174ZM325.549 0.486174H323.055V1.31803H325.549V0.486174ZM321.393 0.486174H318.9V1.31803H321.393V0.486174ZM317.238 0.486174H314.744V1.31803H317.238V0.486174ZM313.082 0.486174H310.589V1.31803H313.082V0.486174ZM308.926 0.486174H306.433V1.31803H308.926V0.486174ZM304.771 0.486174H302.278V1.31803H304.771V0.486174ZM300.615 0.486174H298.122V1.31803H300.615V0.486174ZM296.46 0.486174H293.967V1.31803H296.46V0.486174ZM292.304 0.486174H289.811V1.31803H292.304V0.486174ZM288.149 0.486174H285.656V1.31803H288.149V0.486174ZM283.993 0.486174H281.5V1.31803H283.993V0.486174ZM279.838 0.486174H277.344V1.31803H279.838V0.486174ZM275.682 0.486174H273.189V1.31803H275.682V0.486174ZM271.527 0.486174H269.033V1.31803H271.527V0.486174ZM267.371 0.486174H264.878V1.31803H267.371V0.486174ZM263.216 0.486174H260.722V1.31803H263.216V0.486174ZM259.06 0.486174H256.567V1.31803H259.06V0.486174ZM254.905 0.486174H252.411V1.31803H254.905V0.486174ZM250.749 0.486174H248.256V1.31803H250.749V0.486174ZM246.593 0.486174H244.1V1.31803H246.593V0.486174ZM242.438 0.486174H239.945V1.31803H242.438V0.486174ZM238.282 0.486174H235.789V1.31803H238.282V0.486174ZM234.127 0.486174H231.634V1.31803H234.127V0.486174ZM229.971 0.486174H227.478V1.31803H229.971V0.486174ZM225.816 0.486174H223.323V1.31803H225.816V0.486174ZM221.66 0.486174H219.167V1.31803H221.66V0.486174ZM217.505 0.486174H215.011V1.31803H217.505V0.486174ZM213.349 0.486174H210.856V1.31803H213.349V0.486174ZM209.194 0.486174H206.7V1.31803H209.194V0.486174ZM205.038 0.486174H202.545V1.31803H205.038V0.486174ZM200.883 0.486174H198.389V1.31803H200.883V0.486174ZM196.727 0.486174H194.234V1.31803H196.727V0.486174ZM192.572 0.486174H190.078V1.31803H192.572V0.486174ZM188.416 0.486174H185.923V1.31803H188.416V0.486174ZM184.261 0.486174H181.767V1.31803H184.261V0.486174ZM180.105 0.486174H177.612V1.31803H180.105V0.486174ZM175.95 0.486174H173.456V1.31803H175.95V0.486174ZM171.794 0.486174H169.301V1.31803H171.794V0.486174ZM167.639 0.486174H165.145V1.31803H167.639V0.486174ZM163.483 0.486174H160.99V1.31803H163.483V0.486174ZM159.328 0.486174H156.834V1.31803H159.328V0.486174ZM155.172 0.486174H152.679V1.31803H155.172V0.486174ZM151.016 0.486174H148.523V1.31803H151.016V0.486174ZM146.861 0.486174H144.368V1.31803H146.861V0.486174ZM142.705 0.486174H140.212V1.31803H142.705V0.486174ZM138.55 0.486174H136.057V1.31803H138.55V0.486174ZM134.394 0.486174H131.901V1.31803H134.394V0.486174ZM130.239 0.486174H127.746V1.31803H130.239V0.486174ZM126.083 0.486174H123.59V1.31803H126.083V0.486174ZM121.928 0.486174H119.435V1.31803H121.928V0.486174ZM117.772 0.486174H115.279V1.31803H117.772V0.486174ZM113.617 0.486174H111.124V1.31803H113.617V0.486174ZM109.461 0.486174H106.968V1.31803H109.461V0.486174ZM105.306 0.486174H102.812V1.31803H105.306V0.486174ZM101.15 0.486174H98.6569V1.31803H101.15V0.486174ZM96.9947 0.486174H94.5014V1.31803H96.9947V0.486174ZM92.8392 0.486174H90.3459V1.31803H92.8392V0.486174ZM88.6837 0.486174H86.1904V1.31803H88.6837V0.486174ZM84.5282 0.486174H82.0349V1.31803H84.5282V0.486174ZM80.3727 0.486174H77.8794V1.31803H80.3727V0.486174ZM76.2172 0.486174H73.7238V1.31803H76.2172V0.486174ZM72.0617 0.486174H69.5683V1.31803H72.0617V0.486174ZM67.9061 0.486174H65.4128V1.31803H67.9061V0.486174ZM63.7506 0.486174H61.2573V1.31803H63.7506V0.486174ZM59.5951 0.486174H57.1018V1.31803H59.5951V0.486174ZM55.4396 0.486174H52.9463V1.31803H55.4396V0.486174ZM51.2841 0.486174H48.7907V1.31803H51.2841V0.486174ZM47.1285 0.486174H44.6352V1.31803H47.1285V0.486174ZM42.973 0.486174H40.4797V1.31803H42.973V0.486174ZM38.8175 0.486174H36.3242V1.31803H38.8175V0.486174ZM34.662 0.486174H32.1687V1.31803H34.662V0.486174ZM30.5065 0.486174H28.0131V1.31803H30.5065V0.486174ZM26.3509 0.486174H23.8576V1.31803H26.3509V0.486174ZM22.1954 0.486174H19.7021V1.31803H22.1954V0.486174ZM18.0399 0.486174H15.5466V1.31803H18.0399V0.486174ZM13.8844 0.486174H11.3911V1.31803H13.8844V0.486174ZM9.72887 0.486174H7.23556V1.31803H9.72887V0.486174ZM5.57336 0.486174H3.08005V1.31803H5.57336V0.486174ZM1.41786 0.486174H0.171387V1.31803H1.41786V0.486174ZM473.901 0.0702487H472.654V1.73395H473.901V0.0702487ZM470.992 0.0702487H468.499V1.73395H470.992V0.0702487ZM466.836 0.0702487H464.343V1.73395H466.836V0.0702487ZM462.681 0.0702487H460.188V1.73395H462.681V0.0702487ZM458.525 0.0702487H456.032V1.73395H458.525V0.0702487ZM454.37 0.0702487H451.877V1.73395H454.37V0.0702487ZM450.214 0.0702487H447.721V1.73395H450.214V0.0702487ZM446.059 0.0702487H443.566V1.73395H446.059V0.0702487ZM441.903 0.0702487H439.41V1.73395H441.903V0.0702487ZM437.748 0.0702487H435.254V1.73395H437.748V0.0702487ZM433.592 0.0702487H431.099V1.73395H433.592V0.0702487ZM429.437 0.0702487H426.943V1.73395H429.437V0.0702487ZM425.281 0.0702487H422.788V1.73395H425.281V0.0702487ZM421.126 0.0702487H418.632V1.73395H421.126V0.0702487ZM416.97 0.0702487H414.477V1.73395H416.97V0.0702487ZM412.815 0.0702487H410.321V1.73395H412.815V0.0702487ZM408.659 0.0702487H406.166V1.73395H408.659V0.0702487ZM404.504 0.0702487H402.01V1.73395H404.504V0.0702487ZM400.348 0.0702487H397.855V1.73395H400.348V0.0702487ZM396.193 0.0702487H393.699V1.73395H396.193V0.0702487ZM392.037 0.0702487H389.544V1.73395H392.037V0.0702487ZM387.882 0.0702487H385.388V1.73395H387.882V0.0702487ZM383.726 0.0702487H381.233V1.73395H383.726V0.0702487ZM379.57 0.0702487H377.077V1.73395H379.57V0.0702487ZM375.415 0.0702487H372.922V1.73395H375.415V0.0702487ZM371.259 0.0702487H368.766V1.73395H371.259V0.0702487ZM367.104 0.0702487H364.611V1.73395H367.104V0.0702487ZM362.948 0.0702487H360.455V1.73395H362.948V0.0702487ZM358.793 0.0702487H356.3V1.73395H358.793V0.0702487ZM354.637 0.0702487H352.144V1.73395H354.637V0.0702487ZM350.482 0.0702487H347.988V1.73395H350.482V0.0702487ZM346.326 0.0702487H343.833V1.73395H346.326V0.0702487ZM342.171 0.0702487H339.677V1.73395H342.171V0.0702487ZM338.015 0.0702487H335.522V1.73395H338.015V0.0702487ZM333.86 0.0702487H331.366V1.73395H333.86V0.0702487ZM329.704 0.0702487H327.211V1.73395H329.704V0.0702487ZM325.549 0.0702487H323.055V1.73395H325.549V0.0702487ZM321.393 0.0702487H318.9V1.73395H321.393V0.0702487ZM317.238 0.0702487H314.744V1.73395H317.238V0.0702487ZM313.082 0.0702487H310.589V1.73395H313.082V0.0702487ZM308.926 0.0702487H306.433V1.73395H308.926V0.0702487ZM304.771 0.0702487H302.278V1.73395H304.771V0.0702487ZM300.615 0.0702487H298.122V1.73395H300.615V0.0702487ZM296.46 0.0702487H293.967V1.73395H296.46V0.0702487ZM292.304 0.0702487H289.811V1.73395H292.304V0.0702487ZM288.149 0.0702487H285.656V1.73395H288.149V0.0702487ZM283.993 0.0702487H281.5V1.73395H283.993V0.0702487ZM279.838 0.0702487H277.344V1.73395H279.838V0.0702487ZM275.682 0.0702487H273.189V1.73395H275.682V0.0702487ZM271.527 0.0702487H269.033V1.73395H271.527V0.0702487ZM267.371 0.0702487H264.878V1.73395H267.371V0.0702487ZM263.216 0.0702487H260.722V1.73395H263.216V0.0702487ZM259.06 0.0702487H256.567V1.73395H259.06V0.0702487ZM254.905 0.0702487H252.411V1.73395H254.905V0.0702487ZM250.749 0.0702487H248.256V1.73395H250.749V0.0702487ZM246.593 0.0702487H244.1V1.73395H246.593V0.0702487ZM242.438 0.0702487H239.945V1.73395H242.438V0.0702487ZM238.282 0.0702487H235.789V1.73395H238.282V0.0702487ZM234.127 0.0702487H231.634V1.73395H234.127V0.0702487ZM229.971 0.0702487H227.478V1.73395H229.971V0.0702487ZM225.816 0.0702487H223.323V1.73395H225.816V0.0702487ZM221.66 0.0702487H219.167V1.73395H221.66V0.0702487ZM217.505 0.0702487H215.011V1.73395H217.505V0.0702487ZM213.349 0.0702487H210.856V1.73395H213.349V0.0702487ZM209.194 0.0702487H206.7V1.73395H209.194V0.0702487ZM205.038 0.0702487H202.545V1.73395H205.038V0.0702487ZM200.883 0.0702487H198.389V1.73395H200.883V0.0702487ZM196.727 0.0702487H194.234V1.73395H196.727V0.0702487ZM192.572 0.0702487H190.078V1.73395H192.572V0.0702487ZM188.416 0.0702487H185.923V1.73395H188.416V0.0702487ZM184.261 0.0702487H181.767V1.73395H184.261V0.0702487ZM180.105 0.0702487H177.612V1.73395H180.105V0.0702487ZM175.95 0.0702487H173.456V1.73395H175.95V0.0702487ZM171.794 0.0702487H169.301V1.73395H171.794V0.0702487ZM167.639 0.0702487H165.145V1.73395H167.639V0.0702487ZM163.483 0.0702487H160.99V1.73395H163.483V0.0702487ZM159.328 0.0702487H156.834V1.73395H159.328V0.0702487ZM155.172 0.0702487H152.679V1.73395H155.172V0.0702487ZM151.016 0.0702487H148.523V1.73395H151.016V0.0702487ZM146.861 0.0702487H144.368V1.73395H146.861V0.0702487ZM142.705 0.0702487H140.212V1.73395H142.705V0.0702487ZM138.55 0.0702487H136.057V1.73395H138.55V0.0702487ZM134.394 0.0702487H131.901V1.73395H134.394V0.0702487ZM130.239 0.0702487H127.746V1.73395H130.239V0.0702487ZM126.083 0.0702487H123.59V1.73395H126.083V0.0702487ZM121.928 0.0702487H119.435V1.73395H121.928V0.0702487ZM117.772 0.0702487H115.279V1.73395H117.772V0.0702487ZM113.617 0.0702487H111.124V1.73395H113.617V0.0702487ZM109.461 0.0702487H106.968V1.73395H109.461V0.0702487ZM105.306 0.0702487H102.812V1.73395H105.306V0.0702487ZM101.15 0.0702487H98.6569V1.73395H101.15V0.0702487ZM96.9947 0.0702487H94.5014V1.73395H96.9947V0.0702487ZM92.8392 0.0702487H90.3459V1.73395H92.8392V0.0702487ZM88.6837 0.0702487H86.1904V1.73395H88.6837V0.0702487ZM84.5282 0.0702487H82.0349V1.73395H84.5282V0.0702487ZM80.3727 0.0702487H77.8794V1.73395H80.3727V0.0702487ZM76.2172 0.0702487H73.7238V1.73395H76.2172V0.0702487ZM72.0617 0.0702487H69.5683V1.73395H72.0617V0.0702487ZM67.9061 0.0702487H65.4128V1.73395H67.9061V0.0702487ZM63.7506 0.0702487H61.2573V1.73395H63.7506V0.0702487ZM59.5951 0.0702487H57.1018V1.73395H59.5951V0.0702487ZM55.4396 0.0702487H52.9463V1.73395H55.4396V0.0702487ZM51.2841 0.0702487H48.7907V1.73395H51.2841V0.0702487ZM47.1285 0.0702487H44.6352V1.73395H47.1285V0.0702487ZM42.973 0.0702487H40.4797V1.73395H42.973V0.0702487ZM38.8175 0.0702487H36.3242V1.73395H38.8175V0.0702487ZM34.662 0.0702487H32.1687V1.73395H34.662V0.0702487ZM30.5065 0.0702487H28.0131V1.73395H30.5065V0.0702487ZM26.3509 0.0702487H23.8576V1.73395H26.3509V0.0702487ZM22.1954 0.0702487H19.7021V1.73395H22.1954V0.0702487ZM18.0399 0.0702487H15.5466V1.73395H18.0399V0.0702487ZM13.8844 0.0702487H11.3911V1.73395H13.8844V0.0702487ZM9.72887 0.0702487H7.23556V1.73395H9.72887V0.0702487ZM5.57336 0.0702487H3.08005V1.73395H5.57336V0.0702487ZM1.41786 0.0702487H0.171387V1.73395H1.41786V0.0702487Z" fill="#CBCBCC" mask="url(#path-1-inside-1_2028_1557)"/>
</svg>
