<svg width="47" height="47" viewBox="0 0 47 47" fill="none" xmlns="http://www.w3.org/2000/svg">
<g clip-path="url(#clip0_2028_1444)">
<path d="M28.6334 19.3195C32.5527 19.3195 31.7688 23.2388 32.5527 22.4549C33.3365 21.6711 34.7684 19.7396 36.472 19.3195M28.6334 19.3195C25.4979 19.3195 24.7141 22.4549 24.7141 22.4549C24.7141 22.4549 23.9302 19.3195 20.7948 19.3195M28.6334 19.3195L27.0657 6.77771M36.472 19.3195C38.99 18.324 41.7925 18.324 44.3106 19.3195L39.9879 7.79568C39.8759 7.49682 39.6755 7.23923 39.4133 7.05732C39.1511 6.87542 38.8396 6.77787 38.5205 6.77771H34.1204M36.472 19.3195L34.1204 6.77771M20.7948 19.3195C17.6593 19.3195 16.8755 21.6711 16.8755 21.6711C16.8755 21.6711 16.0916 19.3195 12.9562 19.3195M20.7948 19.3195L22.3625 6.77771M20.7948 19.3195V42.0514M27.0657 6.77771H22.3625M27.0657 6.77771H34.1204M12.9562 19.3195C9.82074 19.3195 9.82074 22.4549 9.82074 22.4549C9.38387 22.4549 8.82785 22.4068 8.25302 22.2835M12.9562 19.3195L15.3078 6.77771M22.3625 6.77771H15.3078M20.7948 42.0514H9.82074C8.95327 42.0514 8.25302 41.3512 8.25302 40.4837V22.2835M20.7948 42.0514H40.3913C40.8071 42.0514 41.2058 41.8862 41.4998 41.5922C41.7938 41.2982 41.959 40.8995 41.959 40.4837V22.2835M8.25302 22.2835C6.83371 21.9804 5.29316 21.2195 5.13221 19.6038C5.11859 19.4166 5.14717 19.2287 5.21582 19.054L9.43822 7.79568C9.55012 7.49682 9.75057 7.23923 10.0128 7.05732C10.275 6.87542 10.5865 6.77787 10.9056 6.77771H15.3078M16.8755 27.9419V34.2128M30.985 27.1581L25.4979 31.8612M34.9043 30.2935L27.8495 36.5644" stroke="#DFAF26" stroke-width="1.56772" stroke-linecap="round" stroke-linejoin="round"/>
</g>
<defs>
<clipPath id="clip0_2028_1444">
<rect width="45.9865" height="45.9865" fill="white" transform="translate(0.941406 0.506958)"/>
</clipPath>
</defs>
</svg>
