<svg width="40" height="39" viewBox="0 0 40 39" fill="none" xmlns="http://www.w3.org/2000/svg">
<g clip-path="url(#clip0_2028_1467)">
<g clip-path="url(#clip1_2028_1467)">
<path d="M34.725 2.73828H4.47072C4.06952 2.73828 3.68476 2.89766 3.40107 3.18134C3.11738 3.46503 2.95801 3.8498 2.95801 4.25099V36.018C2.95801 36.855 3.6357 37.5307 4.47072 37.5307H34.725C35.1262 37.5307 35.5109 37.3713 35.7946 37.0876C36.0783 36.8039 36.2377 36.4192 36.2377 36.018V4.25099C36.2377 3.8498 36.0783 3.46503 35.7946 3.18134C35.5109 2.89766 35.1262 2.73828 34.725 2.73828Z" stroke="#DFAF26" stroke-width="1.51271" stroke-linecap="round" stroke-linejoin="round"/>
<path d="M7.49658 28.4543H13.5474M7.49658 32.9925H21.111M25.6491 17.8653L19.5983 13.3272L13.5474 17.8653V2.73822H25.6491V17.8653Z" stroke="#DFAF26" stroke-width="1.51271" stroke-linecap="round" stroke-linejoin="round"/>
</g>
</g>
<defs>
<clipPath id="clip0_2028_1467">
<rect width="38.3221" height="38.3221" fill="white" transform="translate(0.941406 0.217102)"/>
</clipPath>
<clipPath id="clip1_2028_1467">
<rect width="36.3051" height="38.3221" fill="white" transform="translate(0.941406 0.217102)"/>
</clipPath>
</defs>
</svg>
